<?xml version="1.0" encoding="UTF-8" standalone="no"?>
<!DOCTYPE svg PUBLIC "-//W3C//DTD SVG 1.1//EN"
 "http://www.w3.org/Graphics/SVG/1.1/DTD/svg11.dtd">
<!-- Generated by graphviz version 13.0.1 (20250615.1724)
 -->
<!-- Pages: 1 -->
<svg width="1463pt" height="794pt"
 viewBox="0.00 0.00 1463.00 794.00" xmlns="http://www.w3.org/2000/svg" xmlns:xlink="http://www.w3.org/1999/xlink">
<g id="graph0" class="graph" transform="scale(1 1) rotate(0) translate(4 790)">
<polygon fill="white" stroke="none" points="-4,4 -4,-790 1458.78,-790 1458.78,4 -4,4"/>
<!-- n1 -->
<g id="node1" class="node">
<title>n1</title>
<ellipse fill="#a3c9e2" stroke="black" cx="712.71" cy="-768" rx="43.67" ry="18"/>
<text xml:space="preserve" text-anchor="middle" x="712.71" y="-762.95" font-family="Times,serif" font-size="14.00">list_item</text>
</g>
<!-- n2 -->
<g id="node2" class="node">
<title>n2</title>
<ellipse fill="#a3c9e2" stroke="black" cx="712.71" cy="-695" rx="61.59" ry="18"/>
<text xml:space="preserve" text-anchor="middle" x="712.71" y="-689.95" font-family="Times,serif" font-size="14.00">validate_item</text>
</g>
<!-- n1&#45;&gt;n2 -->
<g id="edge1" class="edge">
<title>n1&#45;&gt;n2</title>
<path fill="none" stroke="black" d="M712.71,-749.81C712.71,-742.23 712.71,-733.1 712.71,-724.54"/>
<polygon fill="black" stroke="black" points="716.21,-724.54 712.71,-714.54 709.21,-724.54 716.21,-724.54"/>
</g>
<!-- n3 -->
<g id="node3" class="node">
<title>n3</title>
<ellipse fill="#a3c9e2" stroke="black" cx="655.71" cy="-622" rx="54.42" ry="18"/>
<text xml:space="preserve" text-anchor="middle" x="655.71" y="-616.95" font-family="Times,serif" font-size="14.00">place_order</text>
</g>
<!-- n2&#45;&gt;n3 -->
<g id="edge2" class="edge">
<title>n2&#45;&gt;n3</title>
<path fill="none" stroke="black" d="M699.2,-677.17C692.31,-668.6 683.79,-657.99 676.13,-648.44"/>
<polygon fill="black" stroke="black" points="679.05,-646.49 670.06,-640.89 673.6,-650.87 679.05,-646.49"/>
</g>
<!-- n5 -->
<g id="node5" class="node">
<title>n5</title>
<ellipse fill="none" stroke="black" cx="757.71" cy="-445" rx="27" ry="18"/>
<text xml:space="preserve" text-anchor="middle" x="757.71" y="-439.95" font-family="Times,serif" font-size="14.00">n5</text>
</g>
<!-- n2&#45;&gt;n5 -->
<g id="edge4" class="edge">
<title>n2&#45;&gt;n5</title>
<path fill="none" stroke="black" d="M718.51,-676.68C727.17,-650.08 743.36,-597.43 751.71,-551.5 756.01,-527.79 755.36,-521.57 756.71,-497.5 757.12,-490.09 757.37,-482.07 757.52,-474.62"/>
<polygon fill="black" stroke="black" points="761.02,-474.74 757.66,-464.69 754.02,-474.64 761.02,-474.74"/>
<text xml:space="preserve" text-anchor="middle" x="782.59" y="-572.7" font-family="Times,serif" font-size="14.00">item_invalid</text>
</g>
<!-- n4 -->
<g id="node4" class="node">
<title>n4</title>
<ellipse fill="#a3c9e2" stroke="black" cx="655.71" cy="-533.5" rx="87.18" ry="18"/>
<text xml:space="preserve" text-anchor="middle" x="655.71" y="-528.45" font-family="Times,serif" font-size="14.00">payment_processing</text>
</g>
<!-- n3&#45;&gt;n4 -->
<g id="edge3" class="edge">
<title>n3&#45;&gt;n4</title>
<path fill="none" stroke="black" d="M655.71,-603.91C655.71,-592.26 655.71,-576.55 655.71,-563.02"/>
<polygon fill="black" stroke="black" points="659.21,-563.36 655.71,-553.36 652.21,-563.36 659.21,-563.36"/>
</g>
<!-- n6 -->
<g id="node6" class="node">
<title>n6</title>
<ellipse fill="#f7cac9" stroke="black" cx="484.71" cy="-533.5" rx="65.68" ry="18"/>
<text xml:space="preserve" text-anchor="middle" x="484.71" y="-528.45" font-family="Times,serif" font-size="14.00">check_account</text>
</g>
<!-- n3&#45;&gt;n6 -->
<g id="edge36" class="edge">
<title>n3&#45;&gt;n6</title>
<path fill="none" stroke="black" d="M626.7,-606.33C598.79,-592.21 556.34,-570.74 525.13,-554.95"/>
<polygon fill="black" stroke="black" points="526.86,-551.9 516.36,-550.51 523.7,-558.15 526.86,-551.9"/>
<text xml:space="preserve" text-anchor="start" x="585.52" y="-572.7" font-family="Times,serif" font-size="14.00">lambda</text>
</g>
<!-- n4&#45;&gt;n5 -->
<g id="edge5" class="edge">
<title>n4&#45;&gt;n5</title>
<path fill="none" stroke="black" d="M657.37,-515.34C659.27,-504.33 663.32,-490.38 671.96,-481 675.79,-476.83 701.4,-466.65 723.64,-458.33"/>
<polygon fill="black" stroke="black" points="724.59,-461.71 732.75,-454.96 722.16,-455.14 724.59,-461.71"/>
<text xml:space="preserve" text-anchor="middle" x="714.33" y="-484.2" font-family="Times,serif" font-size="14.00">payment_failed</text>
</g>
<!-- n7 -->
<g id="node7" class="node">
<title>n7</title>
<ellipse fill="#f7cac9" stroke="black" cx="643.71" cy="-445" rx="56.47" ry="18"/>
<text xml:space="preserve" text-anchor="middle" x="643.71" y="-439.95" font-family="Times,serif" font-size="14.00">fraud_check</text>
</g>
<!-- n6&#45;&gt;n7 -->
<g id="edge6" class="edge">
<title>n6&#45;&gt;n7</title>
<path fill="none" stroke="black" d="M513.13,-517.04C539.07,-502.93 577.58,-481.98 606.06,-466.48"/>
<polygon fill="black" stroke="black" points="607.62,-469.62 614.73,-461.76 604.27,-463.47 607.62,-469.62"/>
</g>
<!-- n9 -->
<g id="node9" class="node">
<title>n9</title>
<ellipse fill="none" stroke="black" cx="485.71" cy="-356.5" rx="27" ry="18"/>
<text xml:space="preserve" text-anchor="middle" x="485.71" y="-351.45" font-family="Times,serif" font-size="14.00">n9</text>
</g>
<!-- n6&#45;&gt;n9 -->
<g id="edge8" class="edge">
<title>n6&#45;&gt;n9</title>
<path fill="none" stroke="black" d="M480.91,-515.34C476.76,-494.48 471.03,-458.19 473.71,-427 474.87,-413.41 477.29,-398.49 479.66,-385.96"/>
<polygon fill="black" stroke="black" points="483.06,-386.79 481.57,-376.3 476.2,-385.43 483.06,-386.79"/>
<text xml:space="preserve" text-anchor="middle" x="526.21" y="-439.95" font-family="Times,serif" font-size="14.00">account_suspended</text>
</g>
<!-- n8 -->
<g id="node8" class="node">
<title>n8</title>
<ellipse fill="#f7cac9" stroke="black" cx="643.71" cy="-356.5" rx="48.79" ry="18"/>
<text xml:space="preserve" text-anchor="middle" x="643.71" y="-351.45" font-family="Times,serif" font-size="14.00">vip_check</text>
</g>
<!-- n7&#45;&gt;n8 -->
<g id="edge7" class="edge">
<title>n7&#45;&gt;n8</title>
<path fill="none" stroke="black" d="M643.71,-426.91C643.71,-415.26 643.71,-399.55 643.71,-386.02"/>
<polygon fill="black" stroke="black" points="647.21,-386.36 643.71,-376.36 640.21,-386.36 647.21,-386.36"/>
</g>
<!-- n7&#45;&gt;n9 -->
<g id="edge9" class="edge">
<title>n7&#45;&gt;n9</title>
<path fill="none" stroke="black" d="M607.24,-430.84C592.11,-424.88 574.59,-417.3 559.46,-409 542.77,-399.85 525.25,-387.74 511.48,-377.56"/>
<polygon fill="black" stroke="black" points="513.91,-375 503.81,-371.79 509.7,-380.6 513.91,-375"/>
<text xml:space="preserve" text-anchor="middle" x="599.58" y="-395.7" font-family="Times,serif" font-size="14.00">fraud_detected</text>
</g>
<!-- n10 -->
<g id="node10" class="node">
<title>n10</title>
<ellipse fill="#b5ead7" stroke="black" cx="643.71" cy="-268" rx="47.77" ry="18"/>
<text xml:space="preserve" text-anchor="middle" x="643.71" y="-262.95" font-family="Times,serif" font-size="14.00">ship_item</text>
</g>
<!-- n8&#45;&gt;n10 -->
<g id="edge22" class="edge">
<title>n8&#45;&gt;n10</title>
<path fill="none" stroke="black" d="M627.47,-339.04C623.11,-333.58 618.98,-327.18 616.71,-320.5 614.34,-313.56 614.34,-310.94 616.71,-304 617.83,-300.69 619.41,-297.45 621.25,-294.37"/>
<polygon fill="black" stroke="black" points="624,-296.54 626.88,-286.34 618.27,-292.52 624,-296.54"/>
<text xml:space="preserve" text-anchor="middle" x="633.21" y="-307.2" font-family="Times,serif" font-size="14.00">is_vip</text>
</g>
<!-- n8&#45;&gt;n10 -->
<g id="edge35" class="edge">
<title>n8&#45;&gt;n10</title>
<path fill="none" stroke="black" d="M647.28,-338.13C648.27,-332.53 649.21,-326.27 649.71,-320.5 650.33,-313.19 650.33,-311.31 649.71,-304 649.53,-301.92 649.29,-299.79 649.02,-297.64"/>
<polygon fill="black" stroke="black" points="652.5,-297.22 647.51,-287.87 645.58,-298.28 652.5,-297.22"/>
<text xml:space="preserve" text-anchor="start" x="650.17" y="-307.2" font-family="Times,serif" font-size="14.00">lambda</text>
</g>
<!-- n11 -->
<g id="node11" class="node">
<title>n11</title>
<ellipse fill="#b5ead7" stroke="black" cx="643.71" cy="-195" rx="70.8" ry="18"/>
<text xml:space="preserve" text-anchor="middle" x="643.71" y="-189.95" font-family="Times,serif" font-size="14.00">logistics_update</text>
</g>
<!-- n10&#45;&gt;n11 -->
<g id="edge10" class="edge">
<title>n10&#45;&gt;n11</title>
<path fill="none" stroke="black" d="M637.83,-249.81C637.02,-242.14 636.78,-232.89 637.08,-224.24"/>
<polygon fill="black" stroke="black" points="640.56,-224.75 637.74,-214.54 633.57,-224.28 640.56,-224.75"/>
</g>
<!-- n10&#45;&gt;n11 -->
<g id="edge23" class="edge">
<title>n10&#45;&gt;n11</title>
<path fill="none" stroke="black" d="M649.58,-249.81C650.39,-242.14 650.64,-232.89 650.33,-224.24"/>
<polygon fill="black" stroke="black" points="653.84,-224.28 649.67,-214.54 646.86,-224.75 653.84,-224.28"/>
</g>
<!-- n12 -->
<g id="node12" class="node">
<title>n12</title>
<ellipse fill="#ffdac1" stroke="black" cx="66.71" cy="-106.5" rx="66.71" ry="18"/>
<text xml:space="preserve" text-anchor="middle" x="66.71" y="-101.45" font-family="Times,serif" font-size="14.00">handle_dispute</text>
</g>
<!-- n11&#45;&gt;n12 -->
<g id="edge13" class="edge">
<title>n11&#45;&gt;n12</title>
<path fill="none" stroke="black" d="M573.16,-192.49C417.29,-188.8 55.84,-178.21 37.71,-159 30.52,-151.39 33.67,-141.67 40.05,-132.72"/>
<polygon fill="black" stroke="black" points="42.53,-135.22 46.28,-125.31 37.17,-130.72 42.53,-135.22"/>
<text xml:space="preserve" text-anchor="middle" x="76.71" y="-145.7" font-family="Times,serif" font-size="14.00">dispute_raised</text>
</g>
<!-- n11&#45;&gt;n12 -->
<g id="edge26" class="edge">
<title>n11&#45;&gt;n12</title>
<path fill="none" stroke="black" d="M573,-192.99C456.38,-190.65 229.02,-183.05 152.71,-159 132.78,-152.72 112.62,-141 96.84,-130.32"/>
<polygon fill="black" stroke="black" points="99.06,-127.6 88.86,-124.74 95.04,-133.34 99.06,-127.6"/>
<text xml:space="preserve" text-anchor="middle" x="191.71" y="-145.7" font-family="Times,serif" font-size="14.00">dispute_raised</text>
</g>
<!-- n14 -->
<g id="node14" class="node">
<title>n14</title>
<ellipse fill="#ffdac1" stroke="black" cx="334.71" cy="-106.5" rx="62.1" ry="18"/>
<text xml:space="preserve" text-anchor="middle" x="334.71" y="-101.45" font-family="Times,serif" font-size="14.00">handle_return</text>
</g>
<!-- n11&#45;&gt;n14 -->
<g id="edge16" class="edge">
<title>n11&#45;&gt;n14</title>
<path fill="none" stroke="black" d="M573.28,-192.96C463.55,-190.6 261.98,-183.02 239.96,-159 224.09,-141.7 246.49,-129 273.47,-120.53"/>
<polygon fill="black" stroke="black" points="274.29,-123.94 282.93,-117.8 272.35,-117.21 274.29,-123.94"/>
<text xml:space="preserve" text-anchor="middle" x="285.33" y="-145.7" font-family="Times,serif" font-size="14.00">return_requested</text>
</g>
<!-- n11&#45;&gt;n14 -->
<g id="edge29" class="edge">
<title>n11&#45;&gt;n14</title>
<path fill="none" stroke="black" d="M573.8,-191.52C504.21,-187.91 403.12,-179.28 369.96,-159 360.55,-153.25 353.06,-143.94 347.44,-134.8"/>
<polygon fill="black" stroke="black" points="350.52,-133.15 342.62,-126.09 344.4,-136.53 350.52,-133.15"/>
<text xml:space="preserve" text-anchor="middle" x="415.33" y="-145.7" font-family="Times,serif" font-size="14.00">return_requested</text>
</g>
<!-- n15 -->
<g id="node15" class="node">
<title>n15</title>
<ellipse fill="none" stroke="black" cx="494.71" cy="-106.5" rx="27" ry="18"/>
<text xml:space="preserve" text-anchor="middle" x="494.71" y="-101.45" font-family="Times,serif" font-size="14.00">n15</text>
</g>
<!-- n11&#45;&gt;n15 -->
<g id="edge17" class="edge">
<title>n11&#45;&gt;n15</title>
<path fill="none" stroke="black" d="M576.29,-189.26C532.83,-184.64 481.95,-175.75 468.21,-159 461.22,-150.49 465.06,-139.83 471.74,-130.43"/>
<polygon fill="black" stroke="black" points="474.43,-132.67 478.11,-122.73 469.04,-128.21 474.43,-132.67"/>
<text xml:space="preserve" text-anchor="start" x="468.21" y="-145.7" font-family="Times,serif" font-size="14.00">lambda</text>
</g>
<!-- n11&#45;&gt;n15 -->
<g id="edge30" class="edge">
<title>n11&#45;&gt;n15</title>
<path fill="none" stroke="black" d="M597.27,-180.97C581.38,-175.45 563.92,-168.14 549.21,-159 536.89,-151.35 524.97,-140.61 515.44,-130.91"/>
<polygon fill="black" stroke="black" points="518.19,-128.72 508.77,-123.87 513.1,-133.53 518.19,-128.72"/>
<text xml:space="preserve" text-anchor="start" x="549.21" y="-145.7" font-family="Times,serif" font-size="14.00">lambda</text>
</g>
<!-- n16 -->
<g id="node16" class="node">
<title>n16</title>
<ellipse fill="none" stroke="black" cx="643.71" cy="-106.5" rx="27" ry="18"/>
<text xml:space="preserve" text-anchor="middle" x="643.71" y="-101.45" font-family="Times,serif" font-size="14.00">n16</text>
</g>
<!-- n11&#45;&gt;n16 -->
<g id="edge18" class="edge">
<title>n11&#45;&gt;n16</title>
<path fill="none" stroke="black" d="M613.79,-178.63C606.65,-173.42 599.95,-166.88 595.96,-159 589.21,-145.7 599.81,-133.35 612.72,-124.08"/>
<polygon fill="black" stroke="black" points="614.53,-127.08 621.05,-118.73 610.74,-121.2 614.53,-127.08"/>
<text xml:space="preserve" text-anchor="middle" x="633.83" y="-145.7" font-family="Times,serif" font-size="14.00">wants_to_rate</text>
</g>
<!-- n11&#45;&gt;n16 -->
<g id="edge31" class="edge">
<title>n11&#45;&gt;n16</title>
<path fill="none" stroke="black" d="M660.83,-177.27C665.24,-171.9 669.39,-165.61 671.71,-159 674.13,-152.08 674.13,-149.42 671.71,-142.5 670.28,-138.44 668.17,-134.51 665.73,-130.83"/>
<polygon fill="black" stroke="black" points="668.56,-128.77 659.69,-122.99 663.02,-133.04 668.56,-128.77"/>
<text xml:space="preserve" text-anchor="middle" x="711.4" y="-145.7" font-family="Times,serif" font-size="14.00">wants_to_rate</text>
</g>
<!-- n17 -->
<g id="node17" class="node">
<title>n17</title>
<ellipse fill="none" stroke="black" cx="854.71" cy="-106.5" rx="27" ry="18"/>
<text xml:space="preserve" text-anchor="middle" x="854.71" y="-101.45" font-family="Times,serif" font-size="14.00">n17</text>
</g>
<!-- n11&#45;&gt;n17 -->
<g id="edge19" class="edge">
<title>n11&#45;&gt;n17</title>
<path fill="none" stroke="black" d="M690.33,-181.01C710.14,-175.02 733.31,-167.38 753.71,-159 778.24,-148.92 804.94,-135.18 824.72,-124.43"/>
<polygon fill="black" stroke="black" points="826.26,-127.57 833.33,-119.69 822.89,-121.44 826.26,-127.57"/>
<text xml:space="preserve" text-anchor="middle" x="838.75" y="-145.7" font-family="Times,serif" font-size="14.00">wants_to_message</text>
</g>
<!-- n11&#45;&gt;n17 -->
<g id="edge32" class="edge">
<title>n11&#45;&gt;n17</title>
<path fill="none" stroke="black" d="M714.64,-194.05C780.22,-192.4 870.88,-185.25 893.71,-159 902.68,-148.68 894.26,-136.51 882.98,-126.59"/>
<polygon fill="black" stroke="black" points="885.23,-123.91 875.22,-120.45 880.89,-129.4 885.23,-123.91"/>
<text xml:space="preserve" text-anchor="middle" x="948.48" y="-145.7" font-family="Times,serif" font-size="14.00">wants_to_message</text>
</g>
<!-- n18 -->
<g id="node18" class="node">
<title>n18</title>
<ellipse fill="none" stroke="black" cx="1099.71" cy="-106.5" rx="27" ry="18"/>
<text xml:space="preserve" text-anchor="middle" x="1099.71" y="-101.45" font-family="Times,serif" font-size="14.00">n18</text>
</g>
<!-- n11&#45;&gt;n18 -->
<g id="edge20" class="edge">
<title>n11&#45;&gt;n18</title>
<path fill="none" stroke="black" d="M712.85,-190.52C801.78,-185.48 951.05,-174.98 1003.71,-159 1028.14,-151.58 1053.5,-137.67 1072.01,-126.17"/>
<polygon fill="black" stroke="black" points="1073.72,-129.23 1080.27,-120.9 1069.96,-123.33 1073.72,-129.23"/>
<text xml:space="preserve" text-anchor="middle" x="1087.62" y="-145.7" font-family="Times,serif" font-size="14.00">should_show_ad</text>
</g>
<!-- n11&#45;&gt;n18 -->
<g id="edge33" class="edge">
<title>n11&#45;&gt;n18</title>
<path fill="none" stroke="black" d="M714.93,-194.16C844.2,-193.7 1106.73,-189.04 1134.71,-159 1143.54,-149.51 1136.42,-137.61 1126.35,-127.64"/>
<polygon fill="black" stroke="black" points="1128.82,-125.16 1119.02,-121.14 1124.18,-130.4 1128.82,-125.16"/>
<text xml:space="preserve" text-anchor="middle" x="1184.07" y="-145.7" font-family="Times,serif" font-size="14.00">should_show_ad</text>
</g>
<!-- n19 -->
<g id="node19" class="node">
<title>n19</title>
<ellipse fill="none" stroke="black" cx="1326.71" cy="-106.5" rx="27" ry="18"/>
<text xml:space="preserve" text-anchor="middle" x="1326.71" y="-101.45" font-family="Times,serif" font-size="14.00">n19</text>
</g>
<!-- n11&#45;&gt;n19 -->
<g id="edge21" class="edge">
<title>n11&#45;&gt;n19</title>
<path fill="none" stroke="black" d="M714.72,-193.71C849.7,-192.52 1138.3,-186.69 1233.71,-159 1246.77,-155.21 1275.63,-138.7 1297.76,-125.39"/>
<polygon fill="black" stroke="black" points="1299.35,-128.52 1306.08,-120.34 1295.71,-122.53 1299.35,-128.52"/>
<text xml:space="preserve" text-anchor="middle" x="1311.25" y="-145.7" font-family="Times,serif" font-size="14.00">wants_to_search</text>
</g>
<!-- n11&#45;&gt;n19 -->
<g id="edge34" class="edge">
<title>n11&#45;&gt;n19</title>
<path fill="none" stroke="black" d="M714.47,-193.15C891.06,-190.68 1338.65,-182.15 1360.71,-159 1369.57,-149.69 1362.66,-137.8 1352.82,-127.79"/>
<polygon fill="black" stroke="black" points="1355.41,-125.42 1345.66,-121.27 1350.7,-130.59 1355.41,-125.42"/>
<text xml:space="preserve" text-anchor="middle" x="1409.78" y="-145.7" font-family="Times,serif" font-size="14.00">wants_to_search</text>
</g>
<!-- n13 -->
<g id="node13" class="node">
<title>n13</title>
<ellipse fill="#ffdac1" stroke="black" cx="218.71" cy="-18" rx="63.12" ry="18"/>
<text xml:space="preserve" text-anchor="middle" x="218.71" y="-12.95" font-family="Times,serif" font-size="14.00">escalate_issue</text>
</g>
<!-- n12&#45;&gt;n13 -->
<g id="edge11" class="edge">
<title>n12&#45;&gt;n13</title>
<path fill="none" stroke="black" d="M30.71,-91.12C11.8,-81.48 -5.2,-68.03 6.71,-54 24.31,-33.25 90.69,-24.79 144.54,-21.34"/>
<polygon fill="black" stroke="black" points="144.53,-24.85 154.3,-20.77 144.12,-17.86 144.53,-24.85"/>
</g>
<!-- n12&#45;&gt;n13 -->
<g id="edge12" class="edge">
<title>n12&#45;&gt;n13</title>
<path fill="none" stroke="black" d="M41.76,-89.46C28.81,-79.16 17.54,-65.6 27.21,-54 42.33,-35.86 98.04,-27.09 145.5,-22.87"/>
<polygon fill="black" stroke="black" points="145.55,-26.38 155.22,-22.07 144.97,-19.4 145.55,-26.38"/>
<text xml:space="preserve" text-anchor="middle" x="72.96" y="-57.2" font-family="Times,serif" font-size="14.00">needs_escalation</text>
</g>
<!-- n12&#45;&gt;n13 -->
<g id="edge24" class="edge">
<title>n12&#45;&gt;n13</title>
<path fill="none" stroke="black" d="M90.05,-89.42C105.77,-78.86 127.12,-65.01 146.71,-54 155.96,-48.8 166.1,-43.58 175.77,-38.83"/>
<polygon fill="black" stroke="black" points="177.18,-42.03 184.66,-34.53 174.14,-35.73 177.18,-42.03"/>
</g>
<!-- n12&#45;&gt;n13 -->
<g id="edge25" class="edge">
<title>n12&#45;&gt;n13</title>
<path fill="none" stroke="black" d="M102.23,-90.91C115.5,-85.06 130.54,-77.94 143.71,-70.5 152.33,-65.63 170.5,-53.17 186.79,-41.73"/>
<polygon fill="black" stroke="black" points="188.69,-44.68 194.85,-36.05 184.66,-38.96 188.69,-44.68"/>
<text xml:space="preserve" text-anchor="middle" x="213.42" y="-57.2" font-family="Times,serif" font-size="14.00">needs_escalation</text>
</g>
<!-- n14&#45;&gt;n13 -->
<g id="edge14" class="edge">
<title>n14&#45;&gt;n13</title>
<path fill="none" stroke="black" d="M312.66,-89.55C304.48,-83.61 295.15,-76.77 286.71,-70.5 274.33,-61.3 260.76,-51.06 249.03,-42.15"/>
<polygon fill="black" stroke="black" points="251.35,-39.52 241.27,-36.25 247.11,-45.09 251.35,-39.52"/>
</g>
<!-- n14&#45;&gt;n13 -->
<g id="edge15" class="edge">
<title>n14&#45;&gt;n13</title>
<path fill="none" stroke="black" d="M320.63,-88.92C310.95,-78.14 297.41,-64.25 283.71,-54 276.71,-48.77 268.84,-43.84 261.04,-39.43"/>
<polygon fill="black" stroke="black" points="262.72,-36.36 252.26,-34.67 259.38,-42.51 262.72,-36.36"/>
<text xml:space="preserve" text-anchor="middle" x="347.59" y="-57.2" font-family="Times,serif" font-size="14.00">needs_escalation</text>
</g>
<!-- n14&#45;&gt;n13 -->
<g id="edge27" class="edge">
<title>n14&#45;&gt;n13</title>
<path fill="none" stroke="black" d="M371.75,-91.73C391.65,-82.24 409.83,-68.72 397.71,-54 384.05,-37.42 334.58,-28.58 291.1,-23.94"/>
<polygon fill="black" stroke="black" points="291.72,-20.48 281.42,-22.97 291.02,-27.45 291.72,-20.48"/>
</g>
<!-- n14&#45;&gt;n13 -->
<g id="edge28" class="edge">
<title>n14&#45;&gt;n13</title>
<path fill="none" stroke="black" d="M379.38,-93.61C404.46,-84.74 428.1,-71.2 413.71,-54 398.18,-35.44 340.8,-26.71 292.28,-22.61"/>
<polygon fill="black" stroke="black" points="292.55,-19.12 282.31,-21.83 292.01,-26.1 292.55,-19.12"/>
<text xml:space="preserve" text-anchor="middle" x="463.81" y="-57.2" font-family="Times,serif" font-size="14.00">needs_escalation</text>
</g>
</g>
</svg>
